<svg xmlns="http://www.w3.org/2000/svg" width="1024" height="1024" viewBox="0 0 768 768"><defs><clipPath id="a"><path d="M21.125 21.125h725.75v725.75H21.125Zm0 0"/></clipPath><clipPath id="b"><path d="M384 21.125C183.59 21.125 21.125 183.59 21.125 384S183.59 746.875 384 746.875 746.875 584.41 746.875 384 584.41 21.125 384 21.125m0 0"/></clipPath><clipPath id="d"><path d="M.125.125h725.75v725.75H.125Zm0 0"/></clipPath><clipPath id="e"><path d="M363 .125C162.59.125.125 162.59.125 363S162.59 725.875 363 725.875 725.875 563.41 725.875 363 563.41.125 363 .125m0 0"/></clipPath><clipPath id="c"><path d="M0 0h726v726H0z"/></clipPath><clipPath id="f"><path d="M155 135h459v498.855H155Zm0 0"/></clipPath></defs><g clip-path="url(#a)"><g clip-path="url(#b)"><g clip-path="url(#c)" transform="translate(21 21)"><g clip-path="url(#d)"><g clip-path="url(#e)"><path fill="#9aff1c" d="M.125.125h725.75v725.75H.125Zm0 0"/></g></g></g></g></g><g clip-path="url(#f)"><path fill-rule="evenodd" d="M523.672 137.793c-2.606 1.465-7.875 4.32-11.707 6.352-3.828 2.03-8.469 4.539-10.309 5.57-1.84 1.035-7.484 4.203-12.543 7.047s-12.832 7.043-17.277 9.332c-4.445 2.293-8.23 4.406-8.414 4.699-.606.965-1.067 15.43-.54 16.816.36.938 2.098 2.157 5.712 3.996 2.855 1.458 5.445 2.829 5.75 3.051.691.504 4.863 2.781 15.328 8.367 4.445 2.372 9.21 4.938 10.59 5.7 1.379.761 5.015 2.722 8.082 4.355 3.066 1.637 8.96 4.902 13.097 7.262 4.141 2.363 7.579 4.25 7.641 4.2.063-.052.188-20.216.277-44.806.11-29.566-.023-44.687-.394-44.652-.305.031-2.688 1.25-5.293 2.711m-305.719-.637c-.922.555-4.18 2.348-7.246 3.98a968 968 0 0 0-17 9.329c-3.191 1.789-18.582 10.262-28.148 15.492-4.903 2.684-9.07 5.121-9.258 5.418-.75 1.176-1.098 73.64-1.18 245.406-.066 133.684.074 180.328.547 181.192.348.636 2.215 1.992 4.148 3.015 1.934 1.02 7.403 3.985 12.153 6.59a1813 1813 0 0 0 16.441 8.887c8.563 4.55 17.067 9.195 25.524 13.937 3 1.684 5.558 2.957 5.687 2.828.125-.125.395-88.886.598-197.242.199-108.355.527-218.832.722-245.5.196-26.672.282-49.808.188-51.418-.188-3.234-.59-3.476-3.176-1.914m23.668-.875c-.316 2.176-.55 87.367-.242 87.367.25 0 3.73-1.851 7.742-4.113 4.008-2.262 9.547-5.312 12.305-6.773 2.762-1.461 6.648-3.59 8.64-4.73 6.86-3.93 29.27-16.34 32.473-17.985 2.168-1.11 3.32-2.07 3.54-2.957.624-2.48-.013-15.606-.802-16.555-.406-.488-5.547-3.45-11.425-6.574-12.063-6.418-31.157-16.844-36.606-19.988-11.562-6.676-15.492-8.61-15.625-7.692m307.469.742c-.184.485-.336 19.415-.336 42.063 0 39.934.031 41.207 1.074 42.176.59.547 6.043 3.672 12.121 6.941a74248 74248 0 0 0 28.887 15.543c9.809 5.274 18.46 10.016 19.226 10.543.77.524 1.836 1.11 2.372 1.3.921.337.972-1.905.964-42.128-.003-23.367-.191-42.766-.418-43.11-.37-.574-11.546-6.828-30.507-17.074-4-2.164-7.996-4.34-11.98-6.527-8.716-4.809-19.923-10.605-20.497-10.605-.312 0-.719.394-.906.878m-247.61 71.008c-3.34 2.14-28.347 16.016-53.644 29.762-2.875 1.562-5.586 3.39-6.027 4.062-.672 1.024-.856 8.223-1.13 44.461-.382 49.766-1.097 44.844 5.93 40.801 2.325-1.336 8.493-4.762 13.703-7.61 5.211-2.847 14.868-8.19 21.461-11.87 6.59-3.684 14.278-7.914 17.079-9.403 2.804-1.488 5.437-3.117 5.855-3.617.617-.742.781-8.887.906-44.855.082-24.172-.043-43.942-.281-43.938-.234.008-1.969 1-3.852 2.207M463.238 269.7c-.234 36.336-.199 63.54.082 63.82.27.27 15.024.555 32.79.63l32.3.14.14-45.484c.141-44.387.118-45.52-.945-46.871-.597-.762-4.675-3.34-9.058-5.735q-9.978-5.443-19.957-10.875c-24.317-13.238-30.965-16.933-32.262-17.93-.734-.562-1.637-1.023-2.008-1.023-.523 0-.765 14.281-1.082 63.328m85.266-9.12c-.207 11.722-.3 40.503-.203 63.956l.176 42.64 9.539.15 9.543.152 3.96-3.098c7.833-6.129 14.543-8.387 23.497-7.91 5.644.304 10.46 1.75 15.343 4.613 1.399.82 2.641 1.395 2.758 1.273.117-.117.297-19.863.395-43.875l.176-43.656-1.52-1.203c-.836-.66-2.965-1.945-4.738-2.855-1.77-.91-5.727-3.067-8.793-4.79-3.063-1.722-10.84-5.96-17.278-9.413a3246 3246 0 0 1-21.773-11.793c-5.54-3.032-10.215-5.512-10.387-5.512s-.484 9.594-.695 21.32M319.84 320.656c-6.137 2.43-11.453 9.383-12.238 16.004-.497 4.195.71 9.113 3.18 12.93 2.343 3.625 4.542 5.5 8.613 7.336 3.863 1.742 11.601 1.762 15.472.039 3.223-1.438 7.809-5.621 9.707-8.863l1.403-2.387h31.925c17.559 0 32.684.152 33.61.336 1.258.254 5.902 4.539 18.324 16.918 22.55 22.469 21.828 21.687 20.816 22.36-.535.358-9.25.452-24.52.265-19.585-.242-23.784-.43-24.245-1.082-7.266-10.313-10.164-12.086-19.801-12.11-8.375-.023-13.695 3.11-17.387 10.239-2.86 5.52-3.078 9.011-1.219 19.222.47 2.575 5.227 7.625 9.004 9.551 3.157 1.61 5.692 1.918 10.102 1.234 9.43-1.46 13.95-4.5 18.77-12.613.539-.906 2.335-1.004 23.003-1.234 12.332-.14 23.309-.09 24.395.117 1.445.27 1.922.621 1.793 1.312-.098.52-8.875 9.567-19.504 20.106L411.719 439.5l-24.145-.34c-13.281-.187-28.094-.348-32.914-.355l-8.77-.008-1.163-2.285c-1.434-2.813-5.04-6.79-7.579-8.356-6.976-4.312-17.402-3.273-23.316 2.32-9.121 8.626-8.191 23.204 1.914 29.95 4.203 2.808 7.387 3.664 12.43 3.336 6.851-.442 11.969-3.563 15.344-9.36.804-1.379 1.722-2.691 2.043-2.918.324-.222 16.804-.414 36.628-.418l36.043-.007 26.121-26.196 26.118-26.199h51.437c34.34 0 51.8.191 52.516.578.594.317 1.566 1.535 2.168 2.711 3.773 7.395 14.426 11.313 23.476 8.637 11.293-3.34 16.602-16.18 11.22-27.113-2.028-4.122-4.356-6.352-9.028-8.66-2.719-1.34-3.696-1.512-8.64-1.508-8.602.007-11.727 1.753-16.673 9.308l-2.293 3.508-52.008.14-52.007.145-1.493-1.57c-10.18-10.695-50.304-50.524-51.273-50.895-.71-.27-16.887-.496-35.953-.5-19.063-.004-34.938-.195-35.281-.418-.34-.226-1.133-1.414-1.754-2.64-1.992-3.926-5.375-7.223-9.157-8.93-4.77-2.156-11.593-2.5-15.89-.8m-78.977 27.613c-.183.484-.336 20.195-.336 43.8v42.922l3.48-1.933a604 604 0 0 1 8.5-4.582c2.763-1.461 5.27-2.832 5.575-3.051.309-.219 3.82-2.106 7.805-4.196a1293 1293 0 0 0 15.886-8.523c4.75-2.598 11.844-6.473 15.762-8.613s7.367-4.348 7.664-4.903c.68-1.273.711-13.39.035-15.12-.355-.91-3.773-3.094-11.566-7.391-10.078-5.559-17.293-9.625-43.184-24.34-4.793-2.723-8.843-4.953-8.996-4.953-.156 0-.437.398-.625.883m307.918 68.722c-.703.477-.84 14.934-1.047 108.16-.254 115.668-.41 108.809 2.426 106.852.606-.418 3.36-1.953 6.117-3.41 20.243-10.707 24.633-13.051 29.82-15.895 3.22-1.765 7.61-4.152 9.755-5.3 11.039-5.915 16.21-8.774 16.656-9.204.508-.492 1.265-176.675.762-176.675-.157 0-1.758.886-3.555 1.972-5.14 3.102-10.098 4.403-16.649 4.375-8.605-.039-14.125-2.023-22.02-7.926l-4.179-3.125-8.637-.183c-5.074-.11-8.976.039-9.449.36m-85.3 34.062c-1.028.636-1.575 146.21-.551 147.441.402.488 2.132 1.582 3.843 2.434 6.895 3.425 47.34 24.941 55.387 29.465 3 1.687 5.555 2.968 5.672 2.851.121-.121.402-41.027.625-90.91.348-77.66.293-90.727-.379-90.941-1.36-.438-63.906-.766-64.598-.34m-222.953 91.691c0 66.195.164 90.574.621 90.574.34 0 3.79-1.734 7.665-3.847 3.87-2.118 15.945-8.723 26.828-14.672a11356 11356 0 0 1 24.246-13.235c2.453-1.324 4.644-2.687 4.867-3.023.226-.34.414-25.371.418-55.629l.008-55.012-1.809-1.347c-.996-.739-4.57-2.801-7.945-4.586-13.93-7.36-47.594-25.903-50.43-27.778-1.676-1.109-3.371-2.02-3.762-2.02-.57 0-.707 17.622-.707 90.575"/></g></svg>